<?xml version="1.0" encoding="UTF-8"?>
<!DOCTYPE svg PUBLIC "-//W3C//DTD SVG 1.0//EN" "http://www.w3.org/TR/2001/REC-SVG-20010904/DTD/svg10.dtd">
<!-- Creator: CorelDRAW -->
<svg xmlns="http://www.w3.org/2000/svg" xml:space="preserve" width="3.8383mm" height="3.9918mm" version="1.0" style="shape-rendering:geometricPrecision; text-rendering:geometricPrecision; image-rendering:optimizeQuality; fill-rule:evenodd; clip-rule:evenodd"
viewBox="0 0 1.98 2.06"
 xmlns:xlink="http://www.w3.org/1999/xlink"
 xmlns:xodm="http://www.corel.com/coreldraw/odm/2003">
 <defs>
  <style type="text/css">
   <![CDATA[
    .fil0 {fill:#424242}
    .fil1 {fill:#424242;fill-rule:nonzero}
   ]]>
  </style>
 </defs>
 <g id="Livello_x0020_1">
  <metadata id="CorelCorpID_0Corel-Layer"/>
  <path class="fil0" d="M1.45 0.01c-0.13,-0.05 -1.09,0.07 -1.28,0.07 -0.14,-0 -0.16,0.07 -0.16,0.15l0 0.06 0 1.12c0,0.07 0,0.13 0.01,0.14 0.03,0.07 0.25,0.36 0.32,0.44 0.05,0.06 0.07,0.07 0.13,0.07 0.41,0 0.83,-0.05 1.24,-0.07 0.07,-0.01 0.16,0 0.22,-0.03 0.06,-0.04 0.06,-0.12 0.06,-0.19l0 -1.26c0,-0.11 0.01,-0.12 -0.07,-0.18 -0.07,-0.06 -0.43,-0.3 -0.46,-0.31zm-1.27 0.2c0.01,0.04 0.07,0.08 0.11,0.11 0.04,0.03 0.09,0.08 0.14,0.08 0.08,0.01 1.24,-0.07 1.26,-0.08 -0.01,-0.03 -0.21,-0.18 -0.26,-0.19 -0.08,-0.04 -0.31,-0 -0.41,0 -0.1,0.01 -0.81,0.04 -0.84,0.08zm1.64 0.27c-0.06,-0.03 -0.56,0.02 -0.67,0.03 -0.22,0.01 -0.46,0.02 -0.68,0.04 -0.1,0.01 -0.07,0.1 -0.07,0.29 0,0.11 -0.03,1.01 0.03,1.06 0.05,0.03 0.84,-0.03 1,-0.04 0.45,-0.03 0.4,0.04 0.4,-0.31 0,-0.19 0.02,-0.99 -0.02,-1.06z"/>
  <g id="_1858343708368">
   <path class="fil1" d="M1.31 0.29c-0,-0 -0,-0 0,-0.01 0,-0 0,-0.01 0,-0.01 -0,-0 -0.01,-0.01 -0.01,-0.01 -0.01,-0.01 -0.02,-0.02 -0.03,-0.03 -0.01,-0.01 -0.03,-0.02 -0.04,-0.03 -0.01,-0.01 -0.02,-0.01 -0.02,-0.01 -0.01,-0 -0.02,-0.01 -0.02,-0.01 -0.02,-0 -0.02,-0.01 -0.02,-0.01 -0,-0 -0,-0 0.01,-0.01 0.02,-0 0.05,-0.01 0.1,-0.01 0,-0 0.01,-0 0.01,-0 0.04,-0 0.06,-0 0.06,-0 0.01,0 0.03,0.01 0.04,0.02 0,0 0,0 -0,0 -0,0 -0.01,-0 -0.02,-0 -0.01,-0 -0.03,-0 -0.04,-0.01 -0.01,-0 -0.03,-0 -0.04,0 -0.01,0 -0.01,0 -0.01,0.01 0,0.01 0.01,0.01 0.02,0.03 0,0 0.01,0 0.02,0 0.01,-0 0.01,-0 0.02,-0 0,-0 0,-0 0.01,-0.01 0,-0 0,-0 0,-0 0.01,-0 0.01,0 0.02,0 0.01,0 0.02,0.01 0.04,0.03 0.01,0.01 0.01,0.01 0.01,0.01 -0.01,0 -0.02,-0 -0.03,-0 -0.01,-0 -0.02,-0 -0.03,-0 -0.01,0 -0.01,0 -0.01,0 -0,0 0,0 0.01,0.01 0.01,0 0.01,0.01 0.02,0.01 0.01,0.01 0.02,0.01 0.02,0.01 0.01,0 0.02,0 0.03,0 0.02,-0 0.03,-0 0.04,-0.01 0.01,-0 0.01,-0.01 0.02,-0.01 0,-0 0.01,-0.01 0.01,-0.01 0,-0 0.01,0 0.01,0.01 0.01,0 0.01,0.01 0.01,0.02 0,0 0,0 -0,0.01 -0,0 -0.02,0 -0.06,0.01 -0.01,0 -0.02,0 -0.03,0 -0.06,0 -0.09,0 -0.11,0 -0.01,-0 -0.01,-0 -0.02,-0z"/>
   <path class="fil1" d="M1.11 0.29c-0,-0 -0.01,-0.01 -0.02,-0.02 -0.01,-0.01 -0.02,-0.02 -0.03,-0.03 -0.01,-0.01 -0.02,-0.02 -0.03,-0.03 -0.01,-0.01 -0.02,-0.01 -0.02,-0.01 -0.01,-0 -0.02,-0.01 -0.02,-0.01 -0.01,0 -0.02,0 -0.02,0.01 -0,0 -0.01,0 -0.01,0.01 -0,0 -0,0.01 -0.01,0.01 -0.01,0 -0.01,-0 -0.01,-0.01 -0.01,-0.01 -0.02,-0.02 -0.02,-0.02 -0,-0 0,-0.01 0.01,-0.01 0,-0 0.01,-0 0.01,-0 0,-0 0,-0 0.01,-0 0.01,-0 0.02,-0 0.02,-0 0.02,-0 0.04,-0 0.06,-0 0.07,-0 0.1,-0.01 0.1,-0.01 0.01,0 0.02,0.01 0.04,0.02 0,0 0,0 0,0 0.01,0 0.01,0.01 0,0.01 -0,0 -0.01,-0 -0.03,-0.01 -0.01,-0 -0.03,-0.01 -0.03,-0.01 -0.01,-0 -0.02,-0 -0.03,-0 -0.01,0 -0.01,0 -0,0.01 0,0 0.01,0.01 0.01,0.01 0.01,0.01 0.02,0.01 0.03,0.02 0.01,0.01 0.02,0.02 0.03,0.03 0.01,0.01 0.02,0.01 0.02,0.02 0.01,0 0.02,0.01 0.03,0.01 0.01,0 0.02,0 0.02,0.01 0,0 -0,0 -0.02,0 -0,0 -0,0 -0.01,0 -0,0 -0,0 -0.01,0 -0.01,0 -0.02,0 -0.03,0 -0.03,0 -0.05,0 -0.05,0 -0.01,-0 -0.01,-0 -0.01,-0 -0,-0 -0,-0 0,-0.01 0.01,-0 0.01,-0.01 0,-0.01z"/>
   <path class="fil1" d="M0.89 0.32c-0,0 -0.01,0 -0.01,0 -0.01,0 -0.03,0 -0.05,-0 -0.04,-0 -0.07,-0.01 -0.1,-0.03 -0.01,-0.01 -0.02,-0.01 -0.03,-0.02 -0,-0 -0,-0 -0,-0 -0.01,-0.01 -0.02,-0.02 -0.02,-0.03 -0,-0.01 -0,-0.02 0,-0.02 0,-0.01 0.01,-0.01 0.03,-0.02 0.01,-0 0.03,-0.01 0.05,-0.01 0.04,-0 0.07,0 0.11,0.01 0.02,0 0.03,0.01 0.05,0.02 0.02,0.01 0.03,0.01 0.04,0.02 0,0 0,0 0,0 0.01,0.01 0.02,0.02 0.02,0.03 0,0.01 0,0.02 -0,0.02 -0.01,0.01 -0.01,0.01 -0.03,0.02 -0.01,0 -0.03,0.01 -0.04,0.01zm-0.01 -0.01c0,-0 0,-0 0.01,-0 0.01,-0 0.02,-0 0.02,-0.01 0,-0 0.01,-0.01 0.01,-0.01 0,-0.01 -0,-0.01 -0,-0.02 -0,-0.01 -0.01,-0.01 -0.02,-0.02 -0,-0 -0.01,-0.01 -0.01,-0.01 -0.01,-0.01 -0.02,-0.01 -0.03,-0.02 -0.02,-0.01 -0.04,-0.02 -0.07,-0.02 -0.01,-0 -0.02,-0 -0.03,-0 -0,0 -0,0 -0.01,0 -0.02,0 -0.03,0.01 -0.03,0.02 -0,0 0,0.01 0,0.02 0,0.01 0.01,0.01 0.02,0.02 0,0 0,0 0,0 0.01,0.01 0.02,0.02 0.03,0.02 0.01,0.01 0.02,0.01 0.03,0.02 0.01,0 0.02,0.01 0.03,0.01 0.01,0 0.02,0 0.03,0z"/>
   <path class="fil1" d="M0.43 0.28c0.01,0.01 0.02,0.02 0.03,0.03 0.01,0.01 0.02,0.01 0.03,0.02 0,0 0.01,0 0.01,0.01 0,0 0.01,0 0.01,0 0,0 0,0 0,0 -0,0 -0.02,0 -0.05,0.01 -0.01,0 -0.02,0 -0.02,-0 -0.01,-0 -0.01,-0 -0.01,-0 -0,-0 0,-0 0.01,-0.01 0,-0 0.01,-0.01 0,-0.01 -0,-0 -0,-0.01 -0.01,-0.01 -0.01,-0.01 -0.02,-0.02 -0.03,-0.03 -0.01,-0.01 -0.02,-0.02 -0.03,-0.03 -0.01,-0.01 -0.01,-0.01 -0.02,-0.01 -0.01,-0 -0.01,-0.01 -0.02,-0.01 -0.01,-0 -0.02,-0.01 -0.02,-0.01 -0,-0 0.01,-0 0.03,-0 0.02,-0 0.03,-0 0.04,-0 0.01,0 0.02,0 0.02,0 0,0 0.01,0 0.03,0.01 0.02,0.01 0.04,0.01 0.07,0.03 0.03,0.01 0.05,0.02 0.07,0.02 0.02,0.01 0.03,0.01 0.03,0.01 0,-0 -0.01,-0.01 -0.02,-0.03 -0.01,-0.01 -0.03,-0.02 -0.04,-0.03 -0.01,-0.01 -0.02,-0.01 -0.03,-0.02 -0,-0 -0,-0 -0.01,-0 -0.01,-0 -0.01,-0 -0.01,-0 -0,-0 0,-0.01 0.02,-0.01 0,-0 0.01,-0 0.01,-0 0.01,-0 0.03,-0 0.03,-0 0.01,0 0.01,0 0.01,0 0,0 0,0 -0,0.01 -0,0 -0,0.01 0,0.01 0,0 0.01,0.01 0.02,0.02 0.01,0.01 0.02,0.02 0.03,0.03 0.01,0.01 0.02,0.02 0.03,0.03 0.01,0.01 0.01,0.01 0.01,0.01 0,0 0,0.01 -0,0.01 -0.01,0 -0.03,-0 -0.05,-0.01 -0,-0 -0.02,-0.01 -0.04,-0.01 -0.02,-0.01 -0.04,-0.02 -0.08,-0.03 -0.03,-0.01 -0.06,-0.02 -0.07,-0.03 -0.02,-0.01 -0.03,-0.01 -0.03,-0.01 -0,0 0,0 0.01,0.01 0,0 0.01,0.01 0.01,0.01 0,0 0.01,0.01 0.01,0.01z"/>
  </g>
  <path class="fil1" d="M1.62 0.69c0.05,-0 0.07,0.01 0.07,0.04 0,0.01 -0.01,0.03 -0.03,0.07 -0.02,0.04 -0.03,0.08 -0.04,0.14 -0.01,0.05 -0.02,0.1 -0.02,0.12 -0.01,0.03 -0.01,0.06 -0.03,0.1 -0.01,0.04 -0.03,0.11 -0.05,0.2 -0.02,0.09 -0.04,0.16 -0.06,0.21 -0.02,0.04 -0.03,0.07 -0.04,0.09 -0.01,0.01 -0.03,0.02 -0.05,0.02 -0.03,0 -0.05,-0.02 -0.08,-0.06 -0.02,-0.03 -0.03,-0.07 -0.04,-0.11 -0.01,-0.04 -0.03,-0.09 -0.04,-0.13 -0.02,-0.1 -0.04,-0.17 -0.07,-0.24 -0,-0.01 -0.01,-0.02 -0.01,-0.03 -0.02,0 -0.04,0.07 -0.07,0.22 -0.02,0.07 -0.03,0.13 -0.05,0.18 -0.01,0.05 -0.03,0.09 -0.04,0.12 -0.03,0.06 -0.05,0.1 -0.08,0.1 -0.02,0 -0.03,-0.01 -0.05,-0.02 -0.02,-0.01 -0.03,-0.04 -0.04,-0.09 -0.02,-0.05 -0.04,-0.13 -0.07,-0.25 -0.03,-0.12 -0.07,-0.27 -0.11,-0.46 -0.01,-0.03 -0.02,-0.06 -0.02,-0.08 -0.01,-0.02 -0.01,-0.04 -0.01,-0.06 0,-0.02 0.02,-0.02 0.05,-0.02 0.09,-0 0.15,0.01 0.19,0.03 0.02,0.01 0.03,0.04 0.03,0.09 -0,0.01 -0,0.02 -0,0.03 -0,0.02 -0,0.04 -0.01,0.06 -0,0.03 0.01,0.08 0.02,0.14 0.01,0.06 0.04,0.15 0.06,0.24 0.01,0.02 0.01,0.03 0.02,0.03 0.01,-0 0.02,-0.03 0.03,-0.09 0.01,-0.06 0.03,-0.14 0.05,-0.25 0.01,-0.08 0.02,-0.14 0.02,-0.18 0,-0.06 0.04,-0.1 0.11,-0.11 0.03,-0 0.06,0 0.08,0.02 0.02,0.02 0.04,0.04 0.05,0.06 0,0.01 0.01,0.04 0.02,0.09 0.01,0.06 0.03,0.13 0.06,0.23 0.03,0.1 0.05,0.15 0.05,0.15 0.01,-0 0.01,-0.01 0.02,-0.02 0.01,-0.02 0.02,-0.08 0.05,-0.19 0.03,-0.11 0.04,-0.19 0.04,-0.24 -0,-0.01 -0,-0.02 -0,-0.03 -0,-0.01 -0,-0.02 -0,-0.03 -0,-0.07 0.04,-0.11 0.13,-0.11z"/>
 </g>
</svg>
